<svg version="1.1" id="Layer_1" xmlns="http://www.w3.org/2000/svg" xmlns:xlink="http://www.w3.org/1999/xlink" x="0px" y="0px" viewBox="0 0 512 512" style="enable-background:new 0 0 512 512;" xml:space="preserve" width="512" height="512" class=""><g><path style="fill:#344A5E;" d="M141.867,476.623l-12.8-12.8l57.6-57.6V279.289h19.2v129.067c0,2.133-1.067,5.333-3.2,6.4  L141.867,476.623z" data-original="#344A5E" class=""></path><circle style="fill:#66C6B9" cx="135.467" cy="469.156" r="42.667" data-original="#66C6B9" class=""></circle><path style="fill:#344A5E;" d="M125.867,405.156h-83.2v-19.2h74.667v-97.067h19.2v105.6  C135.467,400.889,131.2,405.156,125.867,405.156z" data-original="#344A5E" class=""></path><circle style="fill:#F3705A;" cx="42.667" cy="395.556" r="42.667" data-original="#F3705A" class=""></circle><path style="fill:#344A5E;" d="M370.133,476.623l-60.8-60.8c-2.133-2.133-3.2-4.267-3.2-6.4V279.289h19.2v125.867l57.6,57.6  L370.133,476.623z" data-original="#344A5E" class=""></path><circle style="fill:#F3705A;" cx="376.533" cy="469.156" r="42.667" data-original="#F3705A" class=""></circle><rect x="246.4" y="279.289" style="fill:#344A5E;" width="19.2" height="189.867" data-original="#344A5E" class=""></rect><circle style="fill:#FFD15C;" cx="256" cy="469.156" r="42.667" data-original="#FFD15C" class=""></circle><path style="fill:#344A5E;" d="M469.333,405.156h-84.267c-5.333,0-9.6-4.267-9.6-9.6v-105.6h19.2v97.067h74.667L469.333,405.156  L469.333,405.156z" data-original="#344A5E" class=""></path><circle style="fill:#477C77" cx="469.333" cy="395.556" r="42.667" data-original="#55C0EB" class="active-path" data-old_color="#467B76"></circle><g>
	<path style="fill:#FFD15C;" d="M171.733,160.889c-2.133,8.533-7.467,16-11.733,14.933c-4.267-1.067-7.467-8.533-5.333-18.133   c2.133-8.533,7.467-16,11.733-14.933C171.733,143.823,173.867,152.356,171.733,160.889z" data-original="#FFD15C" class=""></path>
	<path style="fill:#FFD15C;" d="M73.6,160.889c2.133,8.533,7.467,16,11.733,14.933c4.267-1.067,7.467-8.533,5.333-18.133   c-2.133-8.533-7.467-16-11.733-14.933C74.667,143.823,71.467,152.356,73.6,160.889z" data-original="#FFD15C" class=""></path>
</g><g>
	<ellipse style="fill:#415A6B;" cx="121.6" cy="131.023" rx="46.933" ry="46.933" data-original="#415A6B" class=""></ellipse>
	<path style="fill:#415A6B;" d="M168.533,138.489c-3.2,25.6-14.933,46.933-26.667,46.933s-18.133-21.333-14.933-46.933   s14.933-46.933,26.667-46.933S171.733,112.889,168.533,138.489z" data-original="#415A6B" class=""></path>
</g><path style="fill:#344A5E;" d="M245.333,301.689l-8.533-39.467c-3.2-13.867-12.8-25.6-26.667-29.867l-50.133-16l-37.333,14.933  l-37.333-14.933l-50.133,16c-13.867,4.267-23.467,16-26.667,29.867L0,301.689H245.333z" data-original="#344A5E" class=""></path><polygon style="fill:#E8EAE9;" points="136.533,301.689 152.533,236.623 88.533,236.623 107.733,301.689 " data-original="#E8EAE9"></polygon><polygon style="fill:#F3705A;" points="101.333,301.689 144,301.689 130.133,257.956 137.6,245.156 122.667,231.289   107.733,245.156 115.2,257.956 " data-original="#F3705A" class=""></polygon><g>
	<path style="fill:#F3F3F3;" d="M122.667,231.289c0,0,25.6-17.067,27.733-32l9.6,17.067l-18.133,39.467L122.667,231.289z" data-original="#F3F3F3" class=""></path>
	<path style="fill:#F3F3F3;" d="M122.667,231.289c0,0-25.6-17.067-27.733-32l-9.6,17.067l18.133,39.467L122.667,231.289z" data-original="#F3F3F3" class=""></path>
</g><path style="fill:#F7B64C;" d="M94.933,181.156v18.133c2.133,14.933,27.733,32,27.733,32s25.6-17.067,27.733-32v-18.133H94.933z" data-original="#F7B64C" class=""></path><path style="fill:#FFD15C;" d="M81.067,138.489C80,142.756,80,147.023,80,152.356c0,32,19.2,58.667,42.667,58.667  s42.667-26.667,42.667-58.667c0-17.067-5.333-33.067-13.867-43.733C135.467,126.756,112,138.489,81.067,138.489z" data-original="#FFD15C" class=""></path><g>
	<polygon style="fill:#415A6B;" points="161.067,301.689 186.667,266.489 165.333,251.556 186.667,236.623 154.667,205.689    134.4,301.689  " data-original="#415A6B" class=""></polygon>
	<polygon style="fill:#415A6B;" points="84.267,301.689 110.933,301.689 90.667,205.689 59.733,236.623 80,251.556 59.733,266.489     " data-original="#415A6B" class=""></polygon>
</g><g>
	<path style="fill:#FFD15C;" d="M438.4,160.889c-2.133,8.533-7.467,16-11.733,14.933c-4.267-1.067-7.467-8.533-5.333-18.133   c2.133-8.533,7.467-16,11.733-14.933C437.333,143.823,440.533,152.356,438.4,160.889z" data-original="#FFD15C" class=""></path>
	<path style="fill:#FFD15C;" d="M340.267,160.889c2.133,8.533,7.467,16,11.733,14.933c4.267-1.067,7.467-8.533,5.333-18.133   c-2.133-8.533-7.467-16-11.733-14.933C340.267,143.823,338.133,152.356,340.267,160.889z" data-original="#FFD15C" class=""></path>
</g><g>
	<ellipse style="fill:#415A6B;" cx="382.933" cy="131.023" rx="41.6" ry="46.933" data-original="#415A6B" class=""></ellipse>
	<path style="fill:#415A6B;" d="M434.133,138.489c-4.267,25.6-20.267,46.933-36.267,46.933s-24.533-21.333-20.267-46.933   c4.267-25.6,20.267-46.933,36.267-46.933S439.467,112.889,434.133,138.489z" data-original="#415A6B" class=""></path>
</g><path style="fill:#344A5E;" d="M512,301.689l-8.533-39.467c-3.2-13.867-12.8-25.6-26.667-29.867l-50.133-16l-37.333,14.933  L352,216.356l-50.133,16c-13.867,4.267-23.467,16-26.667,29.867l-8.533,39.467H512z" data-original="#344A5E" class=""></path><polygon style="fill:#E8EAE9;" points="403.2,301.689 419.2,236.623 355.2,236.623 373.333,301.689 " data-original="#E8EAE9"></polygon><polygon style="fill:#F3705A;" points="368,301.689 410.667,301.689 396.8,257.956 404.267,245.156 389.333,231.289 374.4,245.156   381.867,257.956 " data-original="#F3705A" class=""></polygon><g>
	<path style="fill:#F3F3F3;" d="M389.333,231.289c0,0,25.6-17.067,27.733-32l9.6,17.067l-18.133,39.467L389.333,231.289z" data-original="#F3F3F3" class=""></path>
	<path style="fill:#F3F3F3;" d="M389.333,231.289c0,0-25.6-17.067-27.733-32l-9.6,17.067l18.133,39.467L389.333,231.289z" data-original="#F3F3F3" class=""></path>
</g><path style="fill:#F7B64C;" d="M361.6,181.156v18.133c2.133,14.933,27.733,32,27.733,32s25.6-17.067,27.733-32v-18.133H361.6z" data-original="#F7B64C" class=""></path><path style="fill:#FFD15C;" d="M406.4,112.889c-17.067,8.533-36.267,13.867-55.467,14.933c-2.133,7.467-4.267,14.933-4.267,24.533  c0,32,19.2,58.667,42.667,58.667S432,184.356,432,152.356c0-5.333,0-9.6-1.067-13.867C420.267,131.023,412.8,122.489,406.4,112.889z  " data-original="#FFD15C" class=""></path><g>
	<polygon style="fill:#415A6B;" points="427.733,301.689 452.267,266.489 432,251.556 452.267,236.623 421.333,205.689    401.067,301.689  " data-original="#415A6B" class=""></polygon>
	<polygon style="fill:#415A6B;" points="350.933,301.689 377.6,301.689 357.333,205.689 325.333,236.623 346.667,251.556    325.333,266.489  " data-original="#415A6B" class=""></polygon>
</g><rect x="218.667" y="206.756" style="fill:#CED6E0;" width="73.6" height="94.933" data-original="#CED6E0" class=""></rect><polygon style="fill:#F05540;" points="266.667,231.289 277.333,221.689 256,200.356 234.667,221.689 245.333,231.289 " data-original="#F05540" class=""></polygon><polygon style="fill:#F3705A;" points="280.533,301.689 266.667,231.289 245.333,231.289 232.533,301.689 " data-original="#F3705A" class=""></polygon><g>
	<path style="fill:#609791" d="M404.267,301.689l-11.733-46.933c-5.333-22.4-22.4-39.467-44.8-44.8l-35.2-8.533   c-14.933,19.2-28.8,57.6-41.6,100.267H404.267L404.267,301.689z" data-original="#8AD7F8" class="" data-old_color="#8AD7F8"></path>
	<path style="fill:#609791" d="M241.067,301.689c-13.867-42.667-27.733-81.067-41.6-100.267l-35.2,8.533   c-22.4,5.333-39.467,22.4-44.8,44.8l-11.733,46.933L241.067,301.689L241.067,301.689z" data-original="#8AD7F8" class="" data-old_color="#8AD7F8"></path>
</g><polygon style="fill:#F7B64C;" points="222.933,132.089 222.933,175.823 256,200.356 289.067,175.823 289.067,132.089 " data-original="#F7B64C" class=""></polygon><path style="fill:#415A6B;" d="M228.267,0.889c0,11.733-7.467,19.2-16,23.467c-14.933,6.4-23.467,22.4-23.467,40.533l0,0  c0,53.333,30.933,92.8,68.267,92.8c29.867,0,55.467-24.533,64-61.867c4.267-17.067,4.267-34.133-1.067-50.133  C312.533,21.156,293.333-4.444,228.267,0.889z" data-original="#415A6B" class=""></path><g>
	<path style="fill:#FFD15C;" d="M245.333,45.689c-12.8,9.6-27.733,16-43.733,18.133c-3.2,9.6-4.267,21.333-4.267,32   c0,46.933,26.667,84.267,58.667,84.267s58.667-37.333,58.667-84.267c0-4.267,0-7.467-1.067-11.733   C288,79.823,263.467,65.956,245.333,45.689z" data-original="#FFD15C" class=""></path>
	
		<ellipse transform="matrix(0.2747 -0.9615 0.9615 0.2747 117.1268 383.2041)" style="fill:#FFD15C;" cx="312.572" cy="113.964" rx="20.266" ry="11.733" data-original="#FFD15C" class=""></ellipse>
	
		<ellipse transform="matrix(0.2747 0.9615 -0.9615 0.2747 254.6134 -108.8889)" style="fill:#FFD15C;" cx="199.484" cy="114.327" rx="20.266" ry="11.733" data-original="#FFD15C" class=""></ellipse>
</g><g>
	<polygon style="fill:#F3F3F3;" points="289.067,175.823 256,200.356 275.2,227.022 300.8,195.022  " data-original="#F3F3F3" class=""></polygon>
	<polygon style="fill:#F3F3F3;" points="222.933,175.823 256,200.356 236.8,227.022 211.2,195.022  " data-original="#F3F3F3" class=""></polygon>
</g><g>
	<polygon style="fill:#477C77" points="292.267,301.689 331.733,248.356 299.733,230.223 337.067,221.689 295.467,186.489    267.733,301.689  " data-original="#55C0EB" class="active-path" data-old_color="#467B76"></polygon>
	<polygon style="fill:#477C77" points="180.267,248.356 219.733,301.689 244.267,301.689 216.533,186.489 174.933,221.689    212.267,230.223  " data-original="#55C0EB" class="active-path" data-old_color="#467B76"></polygon>
</g></g> </svg>