<svg viewBox="0 0 300 79.079" xmlns="http://www.w3.org/2000/svg"><defs><clipPath id="a"><path d="M0 51h157V0H0v51z"/></clipPath></defs><g clip-path="url(#a)" transform="matrix(2.0768 0 0 -2.0768 -11.153 92.77)"><path d="M32.419 40.982c-1.674 1.908-4.7 2.726-8.571 2.726H12.613a1.609 1.609 0 0 1-1.589-1.357L6.346 12.682a.964.964 0 0 1 .953-1.115h6.936l1.742 11.049-.054-.346a1.604 1.604 0 0 0 1.583 1.357h3.296c6.475 0 11.545 2.63 13.026 10.238.044.225.082.444.115.658.441 2.812-.003 4.726-1.524 6.459" fill="#003087"/><path d="M117.33 26.863c-.424-2.784-2.55-2.784-4.607-2.784h-1.17l.821 5.198c.049.314.32.545.638.545h.537c1.4 0 2.722 0 3.404-.797.408-.477.531-1.185.377-2.162m-.895 7.264h-7.756c-.531 0-.982-.386-1.065-.91l-3.136-19.888a.647.647 0 0 1 .638-.747h3.98c.371 0 .687.27.745.636l.89 5.639c.082.524.534.91 1.064.91h2.454c5.109 0 8.058 2.472 8.828 7.373.347 2.142.014 3.826-.989 5.005-1.103 1.296-3.058 1.982-5.653 1.982" fill="#009cde"/><path d="M62.012 26.863c-.424-2.784-2.55-2.784-4.607-2.784h-1.17l.821 5.198c.049.314.32.545.638.545h.537c1.4 0 2.722 0 3.404-.797.408-.477.531-1.185.377-2.162m-.895 7.264h-7.756c-.531 0-.982-.386-1.065-.91L49.16 13.329a.646.646 0 0 1 .638-.747h3.704c.53 0 .981.386 1.064.909l.847 5.366c.082.524.534.91 1.064.91h2.454c5.109 0 8.058 2.472 8.828 7.373.347 2.142.014 3.826-.989 5.005-1.103 1.296-3.058 1.982-5.653 1.982m18.006-14.404c-.359-2.122-2.043-3.547-4.192-3.547-1.077 0-1.94.347-2.494 1.003-.549.65-.756 1.577-.582 2.608.334 2.104 2.046 3.574 4.162 3.574 1.055 0 1.911-.35 2.476-1.012.569-.667.793-1.599.63-2.626m5.176 7.229h-3.714a.647.647 0 0 1-.639-.546l-.163-1.038-.259.376c-.805 1.167-2.598 1.558-4.388 1.558-4.103 0-7.608-3.11-8.29-7.471-.355-2.176.149-4.255 1.383-5.706 1.133-1.333 2.75-1.888 4.677-1.888 3.308 0 5.142 2.124 5.142 2.124l-.166-1.032a.646.646 0 0 1 .639-.747h3.344c.531 0 .982.385 1.065.909l2.008 12.714a.647.647 0 0 1-.639.747" fill="#003087"/><path d="M134.44 19.723c-.359-2.122-2.043-3.547-4.192-3.547-1.077 0-1.94.347-2.494 1.003-.55.65-.756 1.577-.582 2.608.334 2.104 2.046 3.574 4.162 3.574 1.055 0 1.911-.35 2.476-1.012.569-.667.793-1.599.63-2.626m5.176 7.229h-3.714a.647.647 0 0 1-.639-.546l-.163-1.038-.26.376c-.804 1.167-2.597 1.558-4.387 1.558-4.103 0-7.608-3.11-8.29-7.471-.355-2.176.149-4.255 1.383-5.706 1.133-1.333 2.75-1.888 4.677-1.888 3.308 0 5.142 2.124 5.142 2.124l-.166-1.032a.646.646 0 0 1 .639-.747h3.344c.531 0 .982.385 1.065.909l2.008 12.714a.647.647 0 0 1-.639.747" fill="#009cde"/><path d="M104.08 26.952h-3.733c-.357 0-.691-.177-.891-.473l-5.15-7.584-2.182 7.288a1.08 1.08 0 0 1-1.033.769h-3.669a.647.647 0 0 1-.612-.855l4.11-12.066-3.866-5.455a.647.647 0 0 1 .528-1.02h3.729c.353 0 .684.173.886.463l12.414 17.918a.646.646 0 0 1-.531 1.015" fill="#003087"/><path d="M144 33.581l-3.183-20.252a.646.646 0 0 1 .638-.747h3.202c.53 0 .982.386 1.064.91l3.139 19.888a.646.646 0 0 1-.639.747h-3.582a.645.645 0 0 1-.639-.546" fill="#009cde"/><path d="M32.419 40.982c-1.674 1.908-4.7 2.726-8.571 2.726H12.613a1.609 1.609 0 0 1-1.589-1.357L6.346 12.682a.964.964 0 0 1 .953-1.115h6.936l1.742 11.049-.054-.346a1.604 1.604 0 0 0 1.583 1.357h3.296c6.475 0 11.545 2.63 13.026 10.238.044.225.082.444.115.658.441 2.812-.003 4.726-1.524 6.459" fill="#003087"/><path d="M17.849 34.485a1.408 1.408 0 0 0 1.389 1.187h8.808c1.043 0 2.016-.068 2.905-.211a12.206 12.206 0 0 0 1.441-.321 7.957 7.957 0 0 0 1.551-.618c.441 2.813-.003 4.726-1.524 6.459-1.675 1.908-4.7 2.726-8.571 2.726H12.612a1.609 1.609 0 0 1-1.588-1.357L6.346 12.682a.964.964 0 0 1 .952-1.115h6.937l1.742 11.049 1.872 11.869z" fill="#003087"/><path d="M33.943 34.523a18.294 18.294 0 0 0-.115-.658c-1.481-7.607-6.551-10.238-13.026-10.238h-3.297a1.602 1.602 0 0 1-1.582-1.357l-1.688-10.702-.479-3.036a.844.844 0 0 1 .833-.976h5.847c.692 0 1.281.504 1.389 1.187l.057.298 1.102 6.984.071.386a1.407 1.407 0 0 0 1.389 1.187h.875c5.664 0 10.099 2.301 11.395 8.956.541 2.781.261 5.103-1.17 6.734a5.584 5.584 0 0 1-1.601 1.235" fill="#009cde"/><path d="M32.392 35.141c-.226.066-.459.126-.699.179s-.488.1-.742.141c-.89.144-1.862.212-2.906.212h-8.807a1.404 1.404 0 0 1-1.389-1.188l-1.872-11.869-.054-.346a1.602 1.602 0 0 0 1.582 1.357h3.297c6.475 0 11.545 2.63 13.026 10.238.044.225.081.443.115.658a7.998 7.998 0 0 1-1.218.514c-.109.036-.22.071-.333.104" fill="#012169"/></g></svg>